<mxfile host="Electron" modified="2024-03-17T10:25:18.831Z" agent="Mozilla/5.0 (Windows NT 10.0; Win64; x64) AppleWebKit/537.36 (KHTML, like Gecko) draw.io/23.1.5 Chrome/120.0.6099.109 Electron/28.1.0 Safari/537.36" etag="f46oA5ZMJIu87lTrSqlw" version="23.1.5" type="device" pages="3">
  <diagram name="Success-Order" id="jOHrJ59w8RnciJAaAWkY">
    <mxGraphModel dx="1257" dy="1849" grid="1" gridSize="10" guides="1" tooltips="1" connect="1" arrows="1" fold="1" page="1" pageScale="1" pageWidth="850" pageHeight="1100" math="0" shadow="0">
      <root>
        <mxCell id="0" />
        <mxCell id="1" parent="0" />
        <mxCell id="bEi1gADJWJxezYP48ek6-1" value="Client" style="sketch=0;outlineConnect=0;fontColor=#232F3E;gradientColor=none;strokeColor=#232F3E;fillColor=#ffffff;dashed=0;verticalLabelPosition=bottom;verticalAlign=top;align=center;html=1;fontSize=12;fontStyle=0;aspect=fixed;shape=mxgraph.aws4.resourceIcon;resIcon=mxgraph.aws4.client;" parent="1" vertex="1">
          <mxGeometry x="110" y="180" width="60" height="60" as="geometry" />
        </mxCell>
        <mxCell id="bEi1gADJWJxezYP48ek6-2" value="" style="endArrow=classic;html=1;rounded=0;" parent="1" source="bEi1gADJWJxezYP48ek6-1" edge="1">
          <mxGeometry width="50" height="50" relative="1" as="geometry">
            <mxPoint x="400" y="270" as="sourcePoint" />
            <mxPoint x="240" y="210" as="targetPoint" />
          </mxGeometry>
        </mxCell>
        <mxCell id="5fn6qiYpGiU1aJGlurWJ-11" value="" style="edgeStyle=orthogonalEdgeStyle;rounded=0;orthogonalLoop=1;jettySize=auto;html=1;" parent="1" source="bEi1gADJWJxezYP48ek6-3" target="bEi1gADJWJxezYP48ek6-14" edge="1">
          <mxGeometry relative="1" as="geometry" />
        </mxCell>
        <mxCell id="bEi1gADJWJxezYP48ek6-3" value="" style="sketch=0;points=[[0,0,0],[0.25,0,0],[0.5,0,0],[0.75,0,0],[1,0,0],[0,1,0],[0.25,1,0],[0.5,1,0],[0.75,1,0],[1,1,0],[0,0.25,0],[0,0.5,0],[0,0.75,0],[1,0.25,0],[1,0.5,0],[1,0.75,0]];outlineConnect=0;fontColor=#232F3E;gradientColor=#945DF2;gradientDirection=north;fillColor=#5A30B5;strokeColor=#ffffff;dashed=0;verticalLabelPosition=bottom;verticalAlign=top;align=center;html=1;fontSize=12;fontStyle=0;aspect=fixed;shape=mxgraph.aws4.resourceIcon;resIcon=mxgraph.aws4.api_gateway;" parent="1" vertex="1">
          <mxGeometry x="240" y="171" width="78" height="78" as="geometry" />
        </mxCell>
        <mxCell id="bEi1gADJWJxezYP48ek6-4" value="" style="sketch=0;points=[[0,0,0],[0.25,0,0],[0.5,0,0],[0.75,0,0],[1,0,0],[0,1,0],[0.25,1,0],[0.5,1,0],[0.75,1,0],[1,1,0],[0,0.25,0],[0,0.5,0],[0,0.75,0],[1,0.25,0],[1,0.5,0],[1,0.75,0]];outlineConnect=0;fontColor=#232F3E;gradientColor=#F78E04;gradientDirection=north;fillColor=#D05C17;strokeColor=#ffffff;dashed=0;verticalLabelPosition=bottom;verticalAlign=top;align=center;html=1;fontSize=12;fontStyle=0;aspect=fixed;shape=mxgraph.aws4.resourceIcon;resIcon=mxgraph.aws4.eks;" parent="1" vertex="1">
          <mxGeometry x="500" y="171" width="78" height="78" as="geometry" />
        </mxCell>
        <mxCell id="bEi1gADJWJxezYP48ek6-5" value="Order MS" style="text;html=1;align=center;verticalAlign=middle;resizable=0;points=[];autosize=1;strokeColor=none;fillColor=none;" parent="1" vertex="1">
          <mxGeometry x="498" y="249" width="80" height="30" as="geometry" />
        </mxCell>
        <mxCell id="bEi1gADJWJxezYP48ek6-6" value="" style="endArrow=classic;html=1;rounded=0;" parent="1" target="bEi1gADJWJxezYP48ek6-4" edge="1">
          <mxGeometry width="50" height="50" relative="1" as="geometry">
            <mxPoint x="318" y="209.5" as="sourcePoint" />
            <mxPoint x="388" y="209.5" as="targetPoint" />
          </mxGeometry>
        </mxCell>
        <mxCell id="bEi1gADJWJxezYP48ek6-7" value="" style="sketch=0;points=[[0,0,0],[0.25,0,0],[0.5,0,0],[0.75,0,0],[1,0,0],[0,1,0],[0.25,1,0],[0.5,1,0],[0.75,1,0],[1,1,0],[0,0.25,0],[0,0.5,0],[0,0.75,0],[1,0.25,0],[1,0.5,0],[1,0.75,0]];outlineConnect=0;fontColor=#232F3E;gradientColor=#4D72F3;gradientDirection=north;fillColor=#3334B9;strokeColor=#ffffff;dashed=0;verticalLabelPosition=bottom;verticalAlign=top;align=center;html=1;fontSize=12;fontStyle=0;aspect=fixed;shape=mxgraph.aws4.resourceIcon;resIcon=mxgraph.aws4.documentdb_with_mongodb_compatibility;" parent="1" vertex="1">
          <mxGeometry x="610" y="171" width="78" height="78" as="geometry" />
        </mxCell>
        <mxCell id="bEi1gADJWJxezYP48ek6-8" value="Order DB" style="text;html=1;align=center;verticalAlign=middle;resizable=0;points=[];autosize=1;strokeColor=none;fillColor=none;" parent="1" vertex="1">
          <mxGeometry x="610" y="249" width="70" height="30" as="geometry" />
        </mxCell>
        <mxCell id="bEi1gADJWJxezYP48ek6-9" value="" style="endArrow=classic;html=1;rounded=0;" parent="1" edge="1">
          <mxGeometry width="50" height="50" relative="1" as="geometry">
            <mxPoint x="580" y="210" as="sourcePoint" />
            <mxPoint x="610" y="210" as="targetPoint" />
          </mxGeometry>
        </mxCell>
        <mxCell id="bEi1gADJWJxezYP48ek6-10" value="" style="sketch=0;points=[[0,0,0],[0.25,0,0],[0.5,0,0],[0.75,0,0],[1,0,0],[0,1,0],[0.25,1,0],[0.5,1,0],[0.75,1,0],[1,1,0],[0,0.25,0],[0,0.5,0],[0,0.75,0],[1,0.25,0],[1,0.5,0],[1,0.75,0]];outlineConnect=0;fontColor=#232F3E;gradientColor=#945DF2;gradientDirection=north;fillColor=#5A30B5;strokeColor=#ffffff;dashed=0;verticalLabelPosition=bottom;verticalAlign=top;align=center;html=1;fontSize=12;fontStyle=0;aspect=fixed;shape=mxgraph.aws4.resourceIcon;resIcon=mxgraph.aws4.managed_streaming_for_kafka;" parent="1" vertex="1">
          <mxGeometry x="630" y="-90" width="106" height="106" as="geometry" />
        </mxCell>
        <mxCell id="bEi1gADJWJxezYP48ek6-11" value="KAFKA" style="text;html=1;align=center;verticalAlign=middle;resizable=0;points=[];autosize=1;strokeColor=none;fillColor=none;" parent="1" vertex="1">
          <mxGeometry x="650" y="24" width="60" height="30" as="geometry" />
        </mxCell>
        <mxCell id="bEi1gADJWJxezYP48ek6-14" value="1" style="text;html=1;align=center;verticalAlign=middle;resizable=0;points=[];autosize=1;strokeColor=none;fillColor=none;" parent="1" vertex="1">
          <mxGeometry x="185" y="178" width="30" height="30" as="geometry" />
        </mxCell>
        <mxCell id="bEi1gADJWJxezYP48ek6-15" value="2 - API GW routes request to &lt;br&gt;order ms" style="text;html=1;align=center;verticalAlign=middle;resizable=0;points=[];autosize=1;strokeColor=none;fillColor=none;" parent="1" vertex="1">
          <mxGeometry x="313" y="213" width="180" height="40" as="geometry" />
        </mxCell>
        <mxCell id="bEi1gADJWJxezYP48ek6-16" value="" style="sketch=0;points=[[0,0,0],[0.25,0,0],[0.5,0,0],[0.75,0,0],[1,0,0],[0,1,0],[0.25,1,0],[0.5,1,0],[0.75,1,0],[1,1,0],[0,0.25,0],[0,0.5,0],[0,0.75,0],[1,0.25,0],[1,0.5,0],[1,0.75,0]];outlineConnect=0;fontColor=#232F3E;gradientColor=#F78E04;gradientDirection=north;fillColor=#D05C17;strokeColor=#ffffff;dashed=0;verticalLabelPosition=bottom;verticalAlign=top;align=center;html=1;fontSize=12;fontStyle=0;aspect=fixed;shape=mxgraph.aws4.resourceIcon;resIcon=mxgraph.aws4.eks;" parent="1" vertex="1">
          <mxGeometry x="681" y="-318" width="78" height="78" as="geometry" />
        </mxCell>
        <mxCell id="5fn6qiYpGiU1aJGlurWJ-5" value="Payment MS" style="text;html=1;align=center;verticalAlign=middle;resizable=0;points=[];autosize=1;strokeColor=none;fillColor=none;" parent="1" vertex="1">
          <mxGeometry x="669" y="-352" width="90" height="30" as="geometry" />
        </mxCell>
        <mxCell id="5fn6qiYpGiU1aJGlurWJ-6" value="" style="sketch=0;points=[[0,0,0],[0.25,0,0],[0.5,0,0],[0.75,0,0],[1,0,0],[0,1,0],[0.25,1,0],[0.5,1,0],[0.75,1,0],[1,1,0],[0,0.25,0],[0,0.5,0],[0,0.75,0],[1,0.25,0],[1,0.5,0],[1,0.75,0]];outlineConnect=0;fontColor=#232F3E;gradientColor=#4D72F3;gradientDirection=north;fillColor=#3334B9;strokeColor=#ffffff;dashed=0;verticalLabelPosition=bottom;verticalAlign=top;align=center;html=1;fontSize=12;fontStyle=0;aspect=fixed;shape=mxgraph.aws4.resourceIcon;resIcon=mxgraph.aws4.documentdb_with_mongodb_compatibility;" parent="1" vertex="1">
          <mxGeometry x="612" y="-312" width="50" height="50" as="geometry" />
        </mxCell>
        <mxCell id="5fn6qiYpGiU1aJGlurWJ-7" value="Payment DB" style="text;html=1;align=center;verticalAlign=middle;resizable=0;points=[];autosize=1;strokeColor=none;fillColor=none;" parent="1" vertex="1">
          <mxGeometry x="589" y="-348" width="90" height="30" as="geometry" />
        </mxCell>
        <mxCell id="5fn6qiYpGiU1aJGlurWJ-8" value="" style="sketch=0;points=[[0,0,0],[0.25,0,0],[0.5,0,0],[0.75,0,0],[1,0,0],[0,1,0],[0.25,1,0],[0.5,1,0],[0.75,1,0],[1,1,0],[0,0.25,0],[0,0.5,0],[0,0.75,0],[1,0.25,0],[1,0.5,0],[1,0.75,0]];outlineConnect=0;fontColor=#232F3E;gradientColor=#F78E04;gradientDirection=north;fillColor=#D05C17;strokeColor=#ffffff;dashed=0;verticalLabelPosition=bottom;verticalAlign=top;align=center;html=1;fontSize=12;fontStyle=0;aspect=fixed;shape=mxgraph.aws4.resourceIcon;resIcon=mxgraph.aws4.eks;" parent="1" vertex="1">
          <mxGeometry x="1039" y="-322" width="78" height="78" as="geometry" />
        </mxCell>
        <mxCell id="5fn6qiYpGiU1aJGlurWJ-9" value="" style="sketch=0;points=[[0,0,0],[0.25,0,0],[0.5,0,0],[0.75,0,0],[1,0,0],[0,1,0],[0.25,1,0],[0.5,1,0],[0.75,1,0],[1,1,0],[0,0.25,0],[0,0.5,0],[0,0.75,0],[1,0.25,0],[1,0.5,0],[1,0.75,0]];outlineConnect=0;fontColor=#232F3E;gradientColor=#4D72F3;gradientDirection=north;fillColor=#3334B9;strokeColor=#ffffff;dashed=0;verticalLabelPosition=bottom;verticalAlign=top;align=center;html=1;fontSize=12;fontStyle=0;aspect=fixed;shape=mxgraph.aws4.resourceIcon;resIcon=mxgraph.aws4.documentdb_with_mongodb_compatibility;" parent="1" vertex="1">
          <mxGeometry x="1154" y="-309" width="50" height="50" as="geometry" />
        </mxCell>
        <mxCell id="5fn6qiYpGiU1aJGlurWJ-10" value="Wallet MS" style="text;html=1;align=center;verticalAlign=middle;resizable=0;points=[];autosize=1;strokeColor=none;fillColor=none;" parent="1" vertex="1">
          <mxGeometry x="1028" y="-352" width="80" height="30" as="geometry" />
        </mxCell>
        <mxCell id="5fn6qiYpGiU1aJGlurWJ-13" value="Wallet DB" style="text;html=1;align=center;verticalAlign=middle;resizable=0;points=[];autosize=1;strokeColor=none;fillColor=none;" parent="1" vertex="1">
          <mxGeometry x="1128" y="-352" width="80" height="30" as="geometry" />
        </mxCell>
        <mxCell id="5fn6qiYpGiU1aJGlurWJ-14" value="" style="endArrow=classic;html=1;rounded=0;entryX=0;entryY=0.5;entryDx=0;entryDy=0;entryPerimeter=0;" parent="1" source="5fn6qiYpGiU1aJGlurWJ-8" target="5fn6qiYpGiU1aJGlurWJ-9" edge="1">
          <mxGeometry width="50" height="50" relative="1" as="geometry">
            <mxPoint x="664" y="-121" as="sourcePoint" />
            <mxPoint x="634" y="-60" as="targetPoint" />
            <Array as="points" />
          </mxGeometry>
        </mxCell>
        <mxCell id="5fn6qiYpGiU1aJGlurWJ-15" value="6 Check and deduct &lt;br&gt;money from user wallet" style="text;html=1;align=center;verticalAlign=middle;resizable=0;points=[];autosize=1;strokeColor=none;fillColor=none;" parent="1" vertex="1">
          <mxGeometry x="818" y="-329" width="150" height="40" as="geometry" />
        </mxCell>
        <mxCell id="5fn6qiYpGiU1aJGlurWJ-21" value="" style="sketch=0;points=[[0,0,0],[0.25,0,0],[0.5,0,0],[0.75,0,0],[1,0,0],[0,1,0],[0.25,1,0],[0.5,1,0],[0.75,1,0],[1,1,0],[0,0.25,0],[0,0.5,0],[0,0.75,0],[1,0.25,0],[1,0.5,0],[1,0.75,0]];outlineConnect=0;fontColor=#232F3E;gradientColor=#F78E04;gradientDirection=north;fillColor=#D05C17;strokeColor=#ffffff;dashed=0;verticalLabelPosition=bottom;verticalAlign=top;align=center;html=1;fontSize=12;fontStyle=0;aspect=fixed;shape=mxgraph.aws4.resourceIcon;resIcon=mxgraph.aws4.eks;" parent="1" vertex="1">
          <mxGeometry x="1050" y="180" width="78" height="78" as="geometry" />
        </mxCell>
        <mxCell id="5fn6qiYpGiU1aJGlurWJ-22" value="" style="sketch=0;points=[[0,0,0],[0.25,0,0],[0.5,0,0],[0.75,0,0],[1,0,0],[0,1,0],[0.25,1,0],[0.5,1,0],[0.75,1,0],[1,1,0],[0,0.25,0],[0,0.5,0],[0,0.75,0],[1,0.25,0],[1,0.5,0],[1,0.75,0]];outlineConnect=0;fontColor=#232F3E;gradientColor=#4D72F3;gradientDirection=north;fillColor=#3334B9;strokeColor=#ffffff;dashed=0;verticalLabelPosition=bottom;verticalAlign=top;align=center;html=1;fontSize=12;fontStyle=0;aspect=fixed;shape=mxgraph.aws4.resourceIcon;resIcon=mxgraph.aws4.documentdb_with_mongodb_compatibility;" parent="1" vertex="1">
          <mxGeometry x="1140" y="200" width="40" height="40" as="geometry" />
        </mxCell>
        <mxCell id="5fn6qiYpGiU1aJGlurWJ-23" value="Inventory MS" style="text;html=1;align=center;verticalAlign=middle;resizable=0;points=[];autosize=1;strokeColor=none;fillColor=none;" parent="1" vertex="1">
          <mxGeometry x="1038" y="265" width="90" height="30" as="geometry" />
        </mxCell>
        <mxCell id="5fn6qiYpGiU1aJGlurWJ-24" value="Inventory DB" style="text;html=1;align=center;verticalAlign=middle;resizable=0;points=[];autosize=1;strokeColor=none;fillColor=none;" parent="1" vertex="1">
          <mxGeometry x="1128" y="249" width="90" height="30" as="geometry" />
        </mxCell>
        <mxCell id="5fn6qiYpGiU1aJGlurWJ-29" value="" style="endArrow=classic;html=1;rounded=0;exitX=0.5;exitY=0;exitDx=0;exitDy=0;exitPerimeter=0;" parent="1" source="bEi1gADJWJxezYP48ek6-4" target="bEi1gADJWJxezYP48ek6-10" edge="1">
          <mxGeometry width="50" height="50" relative="1" as="geometry">
            <mxPoint x="560" y="150" as="sourcePoint" />
            <mxPoint x="900" y="210" as="targetPoint" />
            <Array as="points">
              <mxPoint x="539" y="150" />
              <mxPoint x="539" y="-40" />
            </Array>
          </mxGeometry>
        </mxCell>
        <mxCell id="5fn6qiYpGiU1aJGlurWJ-33" value="" style="sketch=0;points=[[0,0,0],[0.25,0,0],[0.5,0,0],[0.75,0,0],[1,0,0],[0,1,0],[0.25,1,0],[0.5,1,0],[0.75,1,0],[1,1,0],[0,0.25,0],[0,0.5,0],[0,0.75,0],[1,0.25,0],[1,0.5,0],[1,0.75,0]];outlineConnect=0;fontColor=#232F3E;gradientColor=#FF4F8B;gradientDirection=north;fillColor=#BC1356;strokeColor=#ffffff;dashed=0;verticalLabelPosition=bottom;verticalAlign=top;align=center;html=1;fontSize=12;fontStyle=0;aspect=fixed;shape=mxgraph.aws4.resourceIcon;resIcon=mxgraph.aws4.sns;" parent="1" vertex="1">
          <mxGeometry x="240" y="-24" width="78" height="78" as="geometry" />
        </mxCell>
        <mxCell id="5fn6qiYpGiU1aJGlurWJ-34" value="Notification Service" style="text;html=1;align=center;verticalAlign=middle;resizable=0;points=[];autosize=1;strokeColor=none;fillColor=none;" parent="1" vertex="1">
          <mxGeometry x="215" y="58" width="130" height="30" as="geometry" />
        </mxCell>
        <mxCell id="5fn6qiYpGiU1aJGlurWJ-37" value="" style="endArrow=classic;html=1;rounded=0;exitX=0;exitY=0.5;exitDx=0;exitDy=0;exitPerimeter=0;" parent="1" source="5fn6qiYpGiU1aJGlurWJ-33" edge="1">
          <mxGeometry width="50" height="50" relative="1" as="geometry">
            <mxPoint x="140" y="10" as="sourcePoint" />
            <mxPoint x="140" y="170" as="targetPoint" />
            <Array as="points">
              <mxPoint x="140" y="15" />
            </Array>
          </mxGeometry>
        </mxCell>
        <mxCell id="5fn6qiYpGiU1aJGlurWJ-38" value="11 - Notfiy to client&lt;br&gt;" style="text;html=1;align=center;verticalAlign=middle;resizable=0;points=[];autosize=1;strokeColor=none;fillColor=none;" parent="1" vertex="1">
          <mxGeometry x="20" y="50" width="120" height="30" as="geometry" />
        </mxCell>
        <mxCell id="x4DwQbZfBk4stiQnrzmI-3" value="" style="sketch=0;points=[[0,0,0],[0.25,0,0],[0.5,0,0],[0.75,0,0],[1,0,0],[0,1,0],[0.25,1,0],[0.5,1,0],[0.75,1,0],[1,1,0],[0,0.25,0],[0,0.5,0],[0,0.75,0],[1,0.25,0],[1,0.5,0],[1,0.75,0]];outlineConnect=0;fontColor=#232F3E;gradientColor=#F78E04;gradientDirection=north;fillColor=#D05C17;strokeColor=#ffffff;dashed=0;verticalLabelPosition=bottom;verticalAlign=top;align=center;html=1;fontSize=12;fontStyle=0;aspect=fixed;shape=mxgraph.aws4.resourceIcon;resIcon=mxgraph.aws4.eks;" parent="1" vertex="1">
          <mxGeometry x="926" y="-94" width="114" height="114" as="geometry" />
        </mxCell>
        <mxCell id="x4DwQbZfBk4stiQnrzmI-4" value="Orchestrator MS" style="text;html=1;strokeColor=none;fillColor=none;align=center;verticalAlign=middle;whiteSpace=wrap;rounded=0;" parent="1" vertex="1">
          <mxGeometry x="910" y="30" width="100" height="32" as="geometry" />
        </mxCell>
        <mxCell id="x4DwQbZfBk4stiQnrzmI-5" value="3. Publish Event to Orchestrator topic with ORDER_INITIATED&lt;span style=&quot;background-color:#2f2f2f;padding:0px 0px 0px 2px;&quot;&gt;&lt;/span&gt;" style="text;html=1;strokeColor=none;fillColor=none;align=center;verticalAlign=middle;whiteSpace=wrap;rounded=0;" parent="1" vertex="1">
          <mxGeometry x="420" y="43" width="120" height="60" as="geometry" />
        </mxCell>
        <mxCell id="xbSgMx-EkD6geYAjIFCi-1" value="4. Listens ORDER_INITIATED event" style="text;html=1;strokeColor=none;fillColor=none;align=center;verticalAlign=middle;whiteSpace=wrap;rounded=0;" parent="1" vertex="1">
          <mxGeometry x="800" y="-17" width="60" height="30" as="geometry" />
        </mxCell>
        <mxCell id="xbSgMx-EkD6geYAjIFCi-2" value="" style="endArrow=classic;html=1;rounded=0;entryX=0;entryY=0.5;entryDx=0;entryDy=0;entryPerimeter=0;exitX=1;exitY=0.5;exitDx=0;exitDy=0;exitPerimeter=0;" parent="1" source="bEi1gADJWJxezYP48ek6-10" target="x4DwQbZfBk4stiQnrzmI-3" edge="1">
          <mxGeometry width="50" height="50" relative="1" as="geometry">
            <mxPoint x="670" y="80" as="sourcePoint" />
            <mxPoint x="720" y="30" as="targetPoint" />
          </mxGeometry>
        </mxCell>
        <mxCell id="Rw8sxvlpLUgVmBbJAqTi-1" value="" style="endArrow=classic;html=1;rounded=0;entryX=0.5;entryY=1;entryDx=0;entryDy=0;entryPerimeter=0;" parent="1" edge="1">
          <mxGeometry width="50" height="50" relative="1" as="geometry">
            <mxPoint x="980" y="-100" as="sourcePoint" />
            <mxPoint x="710" y="-240" as="targetPoint" />
            <Array as="points">
              <mxPoint x="980" y="-190" />
              <mxPoint x="710" y="-190" />
            </Array>
          </mxGeometry>
        </mxCell>
        <mxCell id="Rw8sxvlpLUgVmBbJAqTi-2" value="5. API Call to payment MS to deduct money" style="text;html=1;strokeColor=none;fillColor=none;align=center;verticalAlign=middle;whiteSpace=wrap;rounded=0;" parent="1" vertex="1">
          <mxGeometry x="790" y="-180" width="120" height="40" as="geometry" />
        </mxCell>
        <mxCell id="Rw8sxvlpLUgVmBbJAqTi-3" value="" style="endArrow=classic;html=1;rounded=0;entryX=0;entryY=0.5;entryDx=0;entryDy=0;entryPerimeter=0;exitX=1;exitY=0.5;exitDx=0;exitDy=0;exitPerimeter=0;" parent="1" source="bEi1gADJWJxezYP48ek6-16" target="5fn6qiYpGiU1aJGlurWJ-8" edge="1">
          <mxGeometry width="50" height="50" relative="1" as="geometry">
            <mxPoint x="670" y="-50" as="sourcePoint" />
            <mxPoint x="720" y="-100" as="targetPoint" />
          </mxGeometry>
        </mxCell>
        <mxCell id="Rw8sxvlpLUgVmBbJAqTi-4" value="" style="endArrow=classic;html=1;rounded=0;exitX=0.75;exitY=1;exitDx=0;exitDy=0;exitPerimeter=0;" parent="1" source="bEi1gADJWJxezYP48ek6-16" edge="1">
          <mxGeometry width="50" height="50" relative="1" as="geometry">
            <mxPoint x="670" y="-50" as="sourcePoint" />
            <mxPoint x="1000" y="-100" as="targetPoint" />
            <Array as="points">
              <mxPoint x="740" y="-210" />
              <mxPoint x="1000" y="-210" />
            </Array>
          </mxGeometry>
        </mxCell>
        <mxCell id="Rw8sxvlpLUgVmBbJAqTi-5" value="7. API Call Return payment deducted" style="text;html=1;strokeColor=none;fillColor=none;align=center;verticalAlign=middle;whiteSpace=wrap;rounded=0;" parent="1" vertex="1">
          <mxGeometry x="1010" y="-190" width="120" height="30" as="geometry" />
        </mxCell>
        <mxCell id="Rw8sxvlpLUgVmBbJAqTi-6" value="" style="endArrow=classic;html=1;rounded=0;entryX=-0.027;entryY=0.257;entryDx=0;entryDy=0;entryPerimeter=0;" parent="1" target="bEi1gADJWJxezYP48ek6-5" edge="1">
          <mxGeometry width="50" height="50" relative="1" as="geometry">
            <mxPoint x="930" y="20" as="sourcePoint" />
            <mxPoint x="720" y="-100" as="targetPoint" />
            <Array as="points">
              <mxPoint x="930" y="360" />
              <mxPoint x="496" y="360" />
            </Array>
          </mxGeometry>
        </mxCell>
        <mxCell id="Rw8sxvlpLUgVmBbJAqTi-8" value="" style="endArrow=classic;html=1;rounded=0;entryX=0.5;entryY=0;entryDx=0;entryDy=0;entryPerimeter=0;exitX=1;exitY=0.5;exitDx=0;exitDy=0;exitPerimeter=0;" parent="1" source="x4DwQbZfBk4stiQnrzmI-3" target="5fn6qiYpGiU1aJGlurWJ-21" edge="1">
          <mxGeometry width="50" height="50" relative="1" as="geometry">
            <mxPoint x="670" y="-50" as="sourcePoint" />
            <mxPoint x="720" y="-100" as="targetPoint" />
            <Array as="points">
              <mxPoint x="1089" y="-37" />
            </Array>
          </mxGeometry>
        </mxCell>
        <mxCell id="Rw8sxvlpLUgVmBbJAqTi-9" value="9. Perform API call to reserve inventory" style="text;html=1;strokeColor=none;fillColor=none;align=center;verticalAlign=middle;whiteSpace=wrap;rounded=0;" parent="1" vertex="1">
          <mxGeometry x="1094" y="16" width="136" height="24" as="geometry" />
        </mxCell>
        <mxCell id="Rw8sxvlpLUgVmBbJAqTi-10" value="" style="endArrow=classic;html=1;rounded=0;entryX=1;entryY=1;entryDx=0;entryDy=0;entryPerimeter=0;exitX=0;exitY=0;exitDx=0;exitDy=0;exitPerimeter=0;" parent="1" source="5fn6qiYpGiU1aJGlurWJ-21" target="x4DwQbZfBk4stiQnrzmI-3" edge="1">
          <mxGeometry width="50" height="50" relative="1" as="geometry">
            <mxPoint x="670" y="80" as="sourcePoint" />
            <mxPoint x="720" y="30" as="targetPoint" />
          </mxGeometry>
        </mxCell>
        <mxCell id="Rw8sxvlpLUgVmBbJAqTi-11" value="10. Return inventory reserverd API call" style="text;html=1;strokeColor=none;fillColor=none;align=center;verticalAlign=middle;whiteSpace=wrap;rounded=0;" parent="1" vertex="1">
          <mxGeometry x="968" y="90" width="72" height="40" as="geometry" />
        </mxCell>
        <mxCell id="Rw8sxvlpLUgVmBbJAqTi-12" value="" style="endArrow=classic;html=1;rounded=0;entryX=0.5;entryY=0;entryDx=0;entryDy=0;entryPerimeter=0;" parent="1" edge="1">
          <mxGeometry width="50" height="50" relative="1" as="geometry">
            <mxPoint x="946" y="-94" as="sourcePoint" />
            <mxPoint x="270" y="-24" as="targetPoint" />
            <Array as="points">
              <mxPoint x="946" y="-130" />
              <mxPoint x="273" y="-130" />
            </Array>
          </mxGeometry>
        </mxCell>
        <mxCell id="Rw8sxvlpLUgVmBbJAqTi-13" value="11. Send message to user that inventory placed" style="text;html=1;strokeColor=none;fillColor=none;align=center;verticalAlign=middle;whiteSpace=wrap;rounded=0;" parent="1" vertex="1">
          <mxGeometry x="290" y="-175" width="110" height="25" as="geometry" />
        </mxCell>
        <mxCell id="Rw8sxvlpLUgVmBbJAqTi-16" value="12. API call to update order status that inventory is reserved" style="text;html=1;strokeColor=none;fillColor=none;align=center;verticalAlign=middle;whiteSpace=wrap;rounded=0;" parent="1" vertex="1">
          <mxGeometry x="720" y="300" width="120" height="39" as="geometry" />
        </mxCell>
        <mxCell id="Rw8sxvlpLUgVmBbJAqTi-17" value="" style="endArrow=classic;html=1;rounded=0;entryX=0;entryY=0;entryDx=0;entryDy=0;entryPerimeter=0;" parent="1" target="5fn6qiYpGiU1aJGlurWJ-33" edge="1">
          <mxGeometry width="50" height="50" relative="1" as="geometry">
            <mxPoint x="520" y="-130" as="sourcePoint" />
            <mxPoint x="240" y="-240" as="targetPoint" />
            <Array as="points">
              <mxPoint x="520" y="-240" />
              <mxPoint x="240" y="-240" />
            </Array>
          </mxGeometry>
        </mxCell>
        <mxCell id="Rw8sxvlpLUgVmBbJAqTi-18" value="7. Send notification to user that payment is done" style="text;html=1;strokeColor=none;fillColor=none;align=center;verticalAlign=middle;whiteSpace=wrap;rounded=0;" parent="1" vertex="1">
          <mxGeometry x="240" y="-289" width="190" height="19" as="geometry" />
        </mxCell>
        <mxCell id="qldcAJHbbOjQvZeZTIgR-1" value="8. API call to order ms to update payment done order status&lt;div&gt;&lt;br/&gt;&lt;/div&gt;" style="text;html=1;strokeColor=none;fillColor=none;align=center;verticalAlign=middle;whiteSpace=wrap;rounded=0;" vertex="1" parent="1">
          <mxGeometry x="800" y="120" width="120" height="39" as="geometry" />
        </mxCell>
      </root>
    </mxGraphModel>
  </diagram>
  <diagram id="3eZo6JG8NpKzH0ZA-8li" name="Insufficient_Fund">
    <mxGraphModel dx="1035" dy="1716" grid="1" gridSize="10" guides="1" tooltips="1" connect="1" arrows="1" fold="1" page="1" pageScale="1" pageWidth="850" pageHeight="1100" math="0" shadow="0">
      <root>
        <mxCell id="0" />
        <mxCell id="1" parent="0" />
        <mxCell id="urbpeo5dAdBoC6i7Vc3T-1" value="Client" style="sketch=0;outlineConnect=0;fontColor=#232F3E;gradientColor=none;strokeColor=#232F3E;fillColor=#ffffff;dashed=0;verticalLabelPosition=bottom;verticalAlign=top;align=center;html=1;fontSize=12;fontStyle=0;aspect=fixed;shape=mxgraph.aws4.resourceIcon;resIcon=mxgraph.aws4.client;" vertex="1" parent="1">
          <mxGeometry x="110" y="180" width="60" height="60" as="geometry" />
        </mxCell>
        <mxCell id="urbpeo5dAdBoC6i7Vc3T-2" value="" style="endArrow=classic;html=1;rounded=0;" edge="1" parent="1" source="urbpeo5dAdBoC6i7Vc3T-1">
          <mxGeometry width="50" height="50" relative="1" as="geometry">
            <mxPoint x="400" y="270" as="sourcePoint" />
            <mxPoint x="240" y="210" as="targetPoint" />
          </mxGeometry>
        </mxCell>
        <mxCell id="urbpeo5dAdBoC6i7Vc3T-3" value="" style="edgeStyle=orthogonalEdgeStyle;rounded=0;orthogonalLoop=1;jettySize=auto;html=1;" edge="1" parent="1" source="urbpeo5dAdBoC6i7Vc3T-4" target="urbpeo5dAdBoC6i7Vc3T-13">
          <mxGeometry relative="1" as="geometry" />
        </mxCell>
        <mxCell id="urbpeo5dAdBoC6i7Vc3T-4" value="" style="sketch=0;points=[[0,0,0],[0.25,0,0],[0.5,0,0],[0.75,0,0],[1,0,0],[0,1,0],[0.25,1,0],[0.5,1,0],[0.75,1,0],[1,1,0],[0,0.25,0],[0,0.5,0],[0,0.75,0],[1,0.25,0],[1,0.5,0],[1,0.75,0]];outlineConnect=0;fontColor=#232F3E;gradientColor=#945DF2;gradientDirection=north;fillColor=#5A30B5;strokeColor=#ffffff;dashed=0;verticalLabelPosition=bottom;verticalAlign=top;align=center;html=1;fontSize=12;fontStyle=0;aspect=fixed;shape=mxgraph.aws4.resourceIcon;resIcon=mxgraph.aws4.api_gateway;" vertex="1" parent="1">
          <mxGeometry x="240" y="171" width="78" height="78" as="geometry" />
        </mxCell>
        <mxCell id="urbpeo5dAdBoC6i7Vc3T-5" value="" style="sketch=0;points=[[0,0,0],[0.25,0,0],[0.5,0,0],[0.75,0,0],[1,0,0],[0,1,0],[0.25,1,0],[0.5,1,0],[0.75,1,0],[1,1,0],[0,0.25,0],[0,0.5,0],[0,0.75,0],[1,0.25,0],[1,0.5,0],[1,0.75,0]];outlineConnect=0;fontColor=#232F3E;gradientColor=#F78E04;gradientDirection=north;fillColor=#D05C17;strokeColor=#ffffff;dashed=0;verticalLabelPosition=bottom;verticalAlign=top;align=center;html=1;fontSize=12;fontStyle=0;aspect=fixed;shape=mxgraph.aws4.resourceIcon;resIcon=mxgraph.aws4.eks;" vertex="1" parent="1">
          <mxGeometry x="500" y="171" width="78" height="78" as="geometry" />
        </mxCell>
        <mxCell id="urbpeo5dAdBoC6i7Vc3T-6" value="Order MS" style="text;html=1;align=center;verticalAlign=middle;resizable=0;points=[];autosize=1;strokeColor=none;fillColor=none;" vertex="1" parent="1">
          <mxGeometry x="498" y="249" width="80" height="30" as="geometry" />
        </mxCell>
        <mxCell id="urbpeo5dAdBoC6i7Vc3T-7" value="" style="endArrow=classic;html=1;rounded=0;" edge="1" parent="1" target="urbpeo5dAdBoC6i7Vc3T-5">
          <mxGeometry width="50" height="50" relative="1" as="geometry">
            <mxPoint x="318" y="209.5" as="sourcePoint" />
            <mxPoint x="388" y="209.5" as="targetPoint" />
          </mxGeometry>
        </mxCell>
        <mxCell id="urbpeo5dAdBoC6i7Vc3T-8" value="" style="sketch=0;points=[[0,0,0],[0.25,0,0],[0.5,0,0],[0.75,0,0],[1,0,0],[0,1,0],[0.25,1,0],[0.5,1,0],[0.75,1,0],[1,1,0],[0,0.25,0],[0,0.5,0],[0,0.75,0],[1,0.25,0],[1,0.5,0],[1,0.75,0]];outlineConnect=0;fontColor=#232F3E;gradientColor=#4D72F3;gradientDirection=north;fillColor=#3334B9;strokeColor=#ffffff;dashed=0;verticalLabelPosition=bottom;verticalAlign=top;align=center;html=1;fontSize=12;fontStyle=0;aspect=fixed;shape=mxgraph.aws4.resourceIcon;resIcon=mxgraph.aws4.documentdb_with_mongodb_compatibility;" vertex="1" parent="1">
          <mxGeometry x="610" y="171" width="78" height="78" as="geometry" />
        </mxCell>
        <mxCell id="urbpeo5dAdBoC6i7Vc3T-9" value="Order DB" style="text;html=1;align=center;verticalAlign=middle;resizable=0;points=[];autosize=1;strokeColor=none;fillColor=none;" vertex="1" parent="1">
          <mxGeometry x="610" y="249" width="70" height="30" as="geometry" />
        </mxCell>
        <mxCell id="urbpeo5dAdBoC6i7Vc3T-10" value="" style="endArrow=classic;html=1;rounded=0;" edge="1" parent="1">
          <mxGeometry width="50" height="50" relative="1" as="geometry">
            <mxPoint x="580" y="210" as="sourcePoint" />
            <mxPoint x="610" y="210" as="targetPoint" />
          </mxGeometry>
        </mxCell>
        <mxCell id="urbpeo5dAdBoC6i7Vc3T-11" value="" style="sketch=0;points=[[0,0,0],[0.25,0,0],[0.5,0,0],[0.75,0,0],[1,0,0],[0,1,0],[0.25,1,0],[0.5,1,0],[0.75,1,0],[1,1,0],[0,0.25,0],[0,0.5,0],[0,0.75,0],[1,0.25,0],[1,0.5,0],[1,0.75,0]];outlineConnect=0;fontColor=#232F3E;gradientColor=#945DF2;gradientDirection=north;fillColor=#5A30B5;strokeColor=#ffffff;dashed=0;verticalLabelPosition=bottom;verticalAlign=top;align=center;html=1;fontSize=12;fontStyle=0;aspect=fixed;shape=mxgraph.aws4.resourceIcon;resIcon=mxgraph.aws4.managed_streaming_for_kafka;" vertex="1" parent="1">
          <mxGeometry x="630" y="-90" width="106" height="106" as="geometry" />
        </mxCell>
        <mxCell id="urbpeo5dAdBoC6i7Vc3T-12" value="KAFKA" style="text;html=1;align=center;verticalAlign=middle;resizable=0;points=[];autosize=1;strokeColor=none;fillColor=none;" vertex="1" parent="1">
          <mxGeometry x="650" y="24" width="60" height="30" as="geometry" />
        </mxCell>
        <mxCell id="urbpeo5dAdBoC6i7Vc3T-13" value="1" style="text;html=1;align=center;verticalAlign=middle;resizable=0;points=[];autosize=1;strokeColor=none;fillColor=none;" vertex="1" parent="1">
          <mxGeometry x="185" y="178" width="30" height="30" as="geometry" />
        </mxCell>
        <mxCell id="urbpeo5dAdBoC6i7Vc3T-14" value="2 - API GW routes request to &lt;br&gt;order ms" style="text;html=1;align=center;verticalAlign=middle;resizable=0;points=[];autosize=1;strokeColor=none;fillColor=none;" vertex="1" parent="1">
          <mxGeometry x="313" y="213" width="180" height="40" as="geometry" />
        </mxCell>
        <mxCell id="urbpeo5dAdBoC6i7Vc3T-15" value="" style="sketch=0;points=[[0,0,0],[0.25,0,0],[0.5,0,0],[0.75,0,0],[1,0,0],[0,1,0],[0.25,1,0],[0.5,1,0],[0.75,1,0],[1,1,0],[0,0.25,0],[0,0.5,0],[0,0.75,0],[1,0.25,0],[1,0.5,0],[1,0.75,0]];outlineConnect=0;fontColor=#232F3E;gradientColor=#F78E04;gradientDirection=north;fillColor=#D05C17;strokeColor=#ffffff;dashed=0;verticalLabelPosition=bottom;verticalAlign=top;align=center;html=1;fontSize=12;fontStyle=0;aspect=fixed;shape=mxgraph.aws4.resourceIcon;resIcon=mxgraph.aws4.eks;" vertex="1" parent="1">
          <mxGeometry x="681" y="-318" width="78" height="78" as="geometry" />
        </mxCell>
        <mxCell id="urbpeo5dAdBoC6i7Vc3T-16" value="Payment MS" style="text;html=1;align=center;verticalAlign=middle;resizable=0;points=[];autosize=1;strokeColor=none;fillColor=none;" vertex="1" parent="1">
          <mxGeometry x="669" y="-352" width="90" height="30" as="geometry" />
        </mxCell>
        <mxCell id="urbpeo5dAdBoC6i7Vc3T-17" value="" style="sketch=0;points=[[0,0,0],[0.25,0,0],[0.5,0,0],[0.75,0,0],[1,0,0],[0,1,0],[0.25,1,0],[0.5,1,0],[0.75,1,0],[1,1,0],[0,0.25,0],[0,0.5,0],[0,0.75,0],[1,0.25,0],[1,0.5,0],[1,0.75,0]];outlineConnect=0;fontColor=#232F3E;gradientColor=#4D72F3;gradientDirection=north;fillColor=#3334B9;strokeColor=#ffffff;dashed=0;verticalLabelPosition=bottom;verticalAlign=top;align=center;html=1;fontSize=12;fontStyle=0;aspect=fixed;shape=mxgraph.aws4.resourceIcon;resIcon=mxgraph.aws4.documentdb_with_mongodb_compatibility;" vertex="1" parent="1">
          <mxGeometry x="612" y="-312" width="50" height="50" as="geometry" />
        </mxCell>
        <mxCell id="urbpeo5dAdBoC6i7Vc3T-18" value="Payment DB" style="text;html=1;align=center;verticalAlign=middle;resizable=0;points=[];autosize=1;strokeColor=none;fillColor=none;" vertex="1" parent="1">
          <mxGeometry x="589" y="-348" width="90" height="30" as="geometry" />
        </mxCell>
        <mxCell id="urbpeo5dAdBoC6i7Vc3T-19" value="" style="sketch=0;points=[[0,0,0],[0.25,0,0],[0.5,0,0],[0.75,0,0],[1,0,0],[0,1,0],[0.25,1,0],[0.5,1,0],[0.75,1,0],[1,1,0],[0,0.25,0],[0,0.5,0],[0,0.75,0],[1,0.25,0],[1,0.5,0],[1,0.75,0]];outlineConnect=0;fontColor=#232F3E;gradientColor=#F78E04;gradientDirection=north;fillColor=#D05C17;strokeColor=#ffffff;dashed=0;verticalLabelPosition=bottom;verticalAlign=top;align=center;html=1;fontSize=12;fontStyle=0;aspect=fixed;shape=mxgraph.aws4.resourceIcon;resIcon=mxgraph.aws4.eks;" vertex="1" parent="1">
          <mxGeometry x="1039" y="-322" width="78" height="78" as="geometry" />
        </mxCell>
        <mxCell id="urbpeo5dAdBoC6i7Vc3T-20" value="" style="sketch=0;points=[[0,0,0],[0.25,0,0],[0.5,0,0],[0.75,0,0],[1,0,0],[0,1,0],[0.25,1,0],[0.5,1,0],[0.75,1,0],[1,1,0],[0,0.25,0],[0,0.5,0],[0,0.75,0],[1,0.25,0],[1,0.5,0],[1,0.75,0]];outlineConnect=0;fontColor=#232F3E;gradientColor=#4D72F3;gradientDirection=north;fillColor=#3334B9;strokeColor=#ffffff;dashed=0;verticalLabelPosition=bottom;verticalAlign=top;align=center;html=1;fontSize=12;fontStyle=0;aspect=fixed;shape=mxgraph.aws4.resourceIcon;resIcon=mxgraph.aws4.documentdb_with_mongodb_compatibility;" vertex="1" parent="1">
          <mxGeometry x="1154" y="-309" width="50" height="50" as="geometry" />
        </mxCell>
        <mxCell id="urbpeo5dAdBoC6i7Vc3T-21" value="Wallet MS" style="text;html=1;align=center;verticalAlign=middle;resizable=0;points=[];autosize=1;strokeColor=none;fillColor=none;" vertex="1" parent="1">
          <mxGeometry x="1028" y="-352" width="80" height="30" as="geometry" />
        </mxCell>
        <mxCell id="urbpeo5dAdBoC6i7Vc3T-22" value="Wallet DB" style="text;html=1;align=center;verticalAlign=middle;resizable=0;points=[];autosize=1;strokeColor=none;fillColor=none;" vertex="1" parent="1">
          <mxGeometry x="1128" y="-352" width="80" height="30" as="geometry" />
        </mxCell>
        <mxCell id="urbpeo5dAdBoC6i7Vc3T-23" value="" style="endArrow=classic;html=1;rounded=0;entryX=0;entryY=0.5;entryDx=0;entryDy=0;entryPerimeter=0;" edge="1" parent="1" source="urbpeo5dAdBoC6i7Vc3T-19" target="urbpeo5dAdBoC6i7Vc3T-20">
          <mxGeometry width="50" height="50" relative="1" as="geometry">
            <mxPoint x="664" y="-121" as="sourcePoint" />
            <mxPoint x="634" y="-60" as="targetPoint" />
            <Array as="points" />
          </mxGeometry>
        </mxCell>
        <mxCell id="urbpeo5dAdBoC6i7Vc3T-24" value="6 Return insufficient fund &lt;br&gt;error from wallet ms" style="text;html=1;align=center;verticalAlign=middle;resizable=0;points=[];autosize=1;strokeColor=none;fillColor=none;" vertex="1" parent="1">
          <mxGeometry x="815" y="-352" width="160" height="40" as="geometry" />
        </mxCell>
        <mxCell id="urbpeo5dAdBoC6i7Vc3T-29" value="" style="endArrow=classic;html=1;rounded=0;exitX=0.5;exitY=0;exitDx=0;exitDy=0;exitPerimeter=0;" edge="1" parent="1" source="urbpeo5dAdBoC6i7Vc3T-5" target="urbpeo5dAdBoC6i7Vc3T-11">
          <mxGeometry width="50" height="50" relative="1" as="geometry">
            <mxPoint x="560" y="150" as="sourcePoint" />
            <mxPoint x="900" y="210" as="targetPoint" />
            <Array as="points">
              <mxPoint x="539" y="150" />
              <mxPoint x="539" y="-40" />
            </Array>
          </mxGeometry>
        </mxCell>
        <mxCell id="urbpeo5dAdBoC6i7Vc3T-30" value="" style="sketch=0;points=[[0,0,0],[0.25,0,0],[0.5,0,0],[0.75,0,0],[1,0,0],[0,1,0],[0.25,1,0],[0.5,1,0],[0.75,1,0],[1,1,0],[0,0.25,0],[0,0.5,0],[0,0.75,0],[1,0.25,0],[1,0.5,0],[1,0.75,0]];outlineConnect=0;fontColor=#232F3E;gradientColor=#FF4F8B;gradientDirection=north;fillColor=#BC1356;strokeColor=#ffffff;dashed=0;verticalLabelPosition=bottom;verticalAlign=top;align=center;html=1;fontSize=12;fontStyle=0;aspect=fixed;shape=mxgraph.aws4.resourceIcon;resIcon=mxgraph.aws4.sns;" vertex="1" parent="1">
          <mxGeometry x="240" y="-24" width="78" height="78" as="geometry" />
        </mxCell>
        <mxCell id="urbpeo5dAdBoC6i7Vc3T-31" value="Notification Service" style="text;html=1;align=center;verticalAlign=middle;resizable=0;points=[];autosize=1;strokeColor=none;fillColor=none;" vertex="1" parent="1">
          <mxGeometry x="215" y="58" width="130" height="30" as="geometry" />
        </mxCell>
        <mxCell id="urbpeo5dAdBoC6i7Vc3T-32" value="" style="endArrow=classic;html=1;rounded=0;exitX=0;exitY=0.5;exitDx=0;exitDy=0;exitPerimeter=0;" edge="1" parent="1" source="urbpeo5dAdBoC6i7Vc3T-30">
          <mxGeometry width="50" height="50" relative="1" as="geometry">
            <mxPoint x="140" y="10" as="sourcePoint" />
            <mxPoint x="140" y="170" as="targetPoint" />
            <Array as="points">
              <mxPoint x="140" y="15" />
            </Array>
          </mxGeometry>
        </mxCell>
        <mxCell id="urbpeo5dAdBoC6i7Vc3T-33" value="11 - Notfiy to client&lt;br&gt;" style="text;html=1;align=center;verticalAlign=middle;resizable=0;points=[];autosize=1;strokeColor=none;fillColor=none;" vertex="1" parent="1">
          <mxGeometry x="20" y="50" width="120" height="30" as="geometry" />
        </mxCell>
        <mxCell id="urbpeo5dAdBoC6i7Vc3T-34" value="" style="sketch=0;points=[[0,0,0],[0.25,0,0],[0.5,0,0],[0.75,0,0],[1,0,0],[0,1,0],[0.25,1,0],[0.5,1,0],[0.75,1,0],[1,1,0],[0,0.25,0],[0,0.5,0],[0,0.75,0],[1,0.25,0],[1,0.5,0],[1,0.75,0]];outlineConnect=0;fontColor=#232F3E;gradientColor=#F78E04;gradientDirection=north;fillColor=#D05C17;strokeColor=#ffffff;dashed=0;verticalLabelPosition=bottom;verticalAlign=top;align=center;html=1;fontSize=12;fontStyle=0;aspect=fixed;shape=mxgraph.aws4.resourceIcon;resIcon=mxgraph.aws4.eks;" vertex="1" parent="1">
          <mxGeometry x="926" y="-94" width="114" height="114" as="geometry" />
        </mxCell>
        <mxCell id="urbpeo5dAdBoC6i7Vc3T-35" value="Orchestrator MS" style="text;html=1;strokeColor=none;fillColor=none;align=center;verticalAlign=middle;whiteSpace=wrap;rounded=0;" vertex="1" parent="1">
          <mxGeometry x="910" y="30" width="100" height="32" as="geometry" />
        </mxCell>
        <mxCell id="urbpeo5dAdBoC6i7Vc3T-36" value="3. Publish Event to Orchestrator topic with ORDER_INITIATED&lt;span style=&quot;background-color:#2f2f2f;padding:0px 0px 0px 2px;&quot;&gt;&lt;/span&gt;" style="text;html=1;strokeColor=none;fillColor=none;align=center;verticalAlign=middle;whiteSpace=wrap;rounded=0;" vertex="1" parent="1">
          <mxGeometry x="420" y="43" width="120" height="60" as="geometry" />
        </mxCell>
        <mxCell id="urbpeo5dAdBoC6i7Vc3T-37" value="4. Listens ORDER_INITIATED event" style="text;html=1;strokeColor=none;fillColor=none;align=center;verticalAlign=middle;whiteSpace=wrap;rounded=0;" vertex="1" parent="1">
          <mxGeometry x="800" y="-17" width="60" height="30" as="geometry" />
        </mxCell>
        <mxCell id="urbpeo5dAdBoC6i7Vc3T-38" value="" style="endArrow=classic;html=1;rounded=0;entryX=0;entryY=0.5;entryDx=0;entryDy=0;entryPerimeter=0;exitX=1;exitY=0.5;exitDx=0;exitDy=0;exitPerimeter=0;" edge="1" parent="1" source="urbpeo5dAdBoC6i7Vc3T-11" target="urbpeo5dAdBoC6i7Vc3T-34">
          <mxGeometry width="50" height="50" relative="1" as="geometry">
            <mxPoint x="670" y="80" as="sourcePoint" />
            <mxPoint x="720" y="30" as="targetPoint" />
          </mxGeometry>
        </mxCell>
        <mxCell id="urbpeo5dAdBoC6i7Vc3T-39" value="" style="endArrow=classic;html=1;rounded=0;entryX=0.5;entryY=1;entryDx=0;entryDy=0;entryPerimeter=0;" edge="1" parent="1">
          <mxGeometry width="50" height="50" relative="1" as="geometry">
            <mxPoint x="980" y="-100" as="sourcePoint" />
            <mxPoint x="710" y="-240" as="targetPoint" />
            <Array as="points">
              <mxPoint x="980" y="-190" />
              <mxPoint x="710" y="-190" />
            </Array>
          </mxGeometry>
        </mxCell>
        <mxCell id="urbpeo5dAdBoC6i7Vc3T-40" value="5. API Call to payment MS to deduct money" style="text;html=1;strokeColor=none;fillColor=none;align=center;verticalAlign=middle;whiteSpace=wrap;rounded=0;" vertex="1" parent="1">
          <mxGeometry x="790" y="-180" width="120" height="40" as="geometry" />
        </mxCell>
        <mxCell id="urbpeo5dAdBoC6i7Vc3T-41" value="" style="endArrow=classic;html=1;rounded=0;entryX=0;entryY=0.5;entryDx=0;entryDy=0;entryPerimeter=0;exitX=1;exitY=0.5;exitDx=0;exitDy=0;exitPerimeter=0;" edge="1" parent="1" source="urbpeo5dAdBoC6i7Vc3T-15" target="urbpeo5dAdBoC6i7Vc3T-19">
          <mxGeometry width="50" height="50" relative="1" as="geometry">
            <mxPoint x="670" y="-50" as="sourcePoint" />
            <mxPoint x="720" y="-100" as="targetPoint" />
          </mxGeometry>
        </mxCell>
        <mxCell id="urbpeo5dAdBoC6i7Vc3T-42" value="" style="endArrow=classic;html=1;rounded=0;exitX=0.75;exitY=1;exitDx=0;exitDy=0;exitPerimeter=0;" edge="1" parent="1" source="urbpeo5dAdBoC6i7Vc3T-15">
          <mxGeometry width="50" height="50" relative="1" as="geometry">
            <mxPoint x="670" y="-50" as="sourcePoint" />
            <mxPoint x="1000" y="-100" as="targetPoint" />
            <Array as="points">
              <mxPoint x="740" y="-210" />
              <mxPoint x="1000" y="-210" />
            </Array>
          </mxGeometry>
        </mxCell>
        <mxCell id="urbpeo5dAdBoC6i7Vc3T-43" value="7. API Call Return payment failed with insufficient fund" style="text;html=1;strokeColor=none;fillColor=none;align=center;verticalAlign=middle;whiteSpace=wrap;rounded=0;" vertex="1" parent="1">
          <mxGeometry x="1010" y="-190" width="120" height="30" as="geometry" />
        </mxCell>
        <mxCell id="urbpeo5dAdBoC6i7Vc3T-50" value="" style="endArrow=classic;html=1;rounded=0;entryX=0.5;entryY=0;entryDx=0;entryDy=0;entryPerimeter=0;" edge="1" parent="1">
          <mxGeometry width="50" height="50" relative="1" as="geometry">
            <mxPoint x="946" y="-94" as="sourcePoint" />
            <mxPoint x="270" y="-24" as="targetPoint" />
            <Array as="points">
              <mxPoint x="946" y="-130" />
              <mxPoint x="273" y="-130" />
            </Array>
          </mxGeometry>
        </mxCell>
        <mxCell id="urbpeo5dAdBoC6i7Vc3T-51" value="8. Send message to user that insufficient fund in wallet and order failed" style="text;html=1;strokeColor=none;fillColor=none;align=center;verticalAlign=middle;whiteSpace=wrap;rounded=0;" vertex="1" parent="1">
          <mxGeometry x="290" y="-175" width="140" height="25" as="geometry" />
        </mxCell>
        <mxCell id="urbpeo5dAdBoC6i7Vc3T-55" value="" style="endArrow=classic;html=1;rounded=0;entryX=1;entryY=0.25;entryDx=0;entryDy=0;entryPerimeter=0;exitX=0;exitY=0.25;exitDx=0;exitDy=0;exitPerimeter=0;" edge="1" parent="1" source="urbpeo5dAdBoC6i7Vc3T-19" target="urbpeo5dAdBoC6i7Vc3T-15">
          <mxGeometry width="50" height="50" relative="1" as="geometry">
            <mxPoint x="890" y="-120" as="sourcePoint" />
            <mxPoint x="770" y="-280" as="targetPoint" />
          </mxGeometry>
        </mxCell>
        <mxCell id="urbpeo5dAdBoC6i7Vc3T-56" value="" style="endArrow=classic;html=1;rounded=0;exitX=1;exitY=1;exitDx=0;exitDy=0;exitPerimeter=0;entryX=0.102;entryY=0.029;entryDx=0;entryDy=0;entryPerimeter=0;" edge="1" parent="1" source="urbpeo5dAdBoC6i7Vc3T-34" target="urbpeo5dAdBoC6i7Vc3T-6">
          <mxGeometry width="50" height="50" relative="1" as="geometry">
            <mxPoint x="560" y="-10" as="sourcePoint" />
            <mxPoint x="520" y="330" as="targetPoint" />
            <Array as="points">
              <mxPoint x="1040" y="330" />
              <mxPoint x="506" y="330" />
            </Array>
          </mxGeometry>
        </mxCell>
        <mxCell id="urbpeo5dAdBoC6i7Vc3T-57" value="9. Update order status as order failed" style="text;html=1;align=center;verticalAlign=middle;whiteSpace=wrap;rounded=0;" vertex="1" parent="1">
          <mxGeometry x="910" y="279" width="100" height="30" as="geometry" />
        </mxCell>
      </root>
    </mxGraphModel>
  </diagram>
  <diagram id="SbpmXUT0GUYojZ--Ho6A" name="Inventory_not_available">
    <mxGraphModel dx="880" dy="1624" grid="1" gridSize="10" guides="1" tooltips="1" connect="1" arrows="1" fold="1" page="1" pageScale="1" pageWidth="850" pageHeight="1100" math="0" shadow="0">
      <root>
        <mxCell id="0" />
        <mxCell id="1" parent="0" />
        <mxCell id="munbNwJGpO_LgmVfhRF7-1" value="Client" style="sketch=0;outlineConnect=0;fontColor=#232F3E;gradientColor=none;strokeColor=#232F3E;fillColor=#ffffff;dashed=0;verticalLabelPosition=bottom;verticalAlign=top;align=center;html=1;fontSize=12;fontStyle=0;aspect=fixed;shape=mxgraph.aws4.resourceIcon;resIcon=mxgraph.aws4.client;" parent="1" vertex="1">
          <mxGeometry x="110" y="180" width="60" height="60" as="geometry" />
        </mxCell>
        <mxCell id="munbNwJGpO_LgmVfhRF7-2" value="" style="endArrow=classic;html=1;rounded=0;" parent="1" source="munbNwJGpO_LgmVfhRF7-1" edge="1">
          <mxGeometry width="50" height="50" relative="1" as="geometry">
            <mxPoint x="400" y="270" as="sourcePoint" />
            <mxPoint x="240" y="210" as="targetPoint" />
          </mxGeometry>
        </mxCell>
        <mxCell id="munbNwJGpO_LgmVfhRF7-3" value="" style="edgeStyle=orthogonalEdgeStyle;rounded=0;orthogonalLoop=1;jettySize=auto;html=1;" parent="1" source="munbNwJGpO_LgmVfhRF7-4" target="munbNwJGpO_LgmVfhRF7-13" edge="1">
          <mxGeometry relative="1" as="geometry" />
        </mxCell>
        <mxCell id="munbNwJGpO_LgmVfhRF7-4" value="" style="sketch=0;points=[[0,0,0],[0.25,0,0],[0.5,0,0],[0.75,0,0],[1,0,0],[0,1,0],[0.25,1,0],[0.5,1,0],[0.75,1,0],[1,1,0],[0,0.25,0],[0,0.5,0],[0,0.75,0],[1,0.25,0],[1,0.5,0],[1,0.75,0]];outlineConnect=0;fontColor=#232F3E;gradientColor=#945DF2;gradientDirection=north;fillColor=#5A30B5;strokeColor=#ffffff;dashed=0;verticalLabelPosition=bottom;verticalAlign=top;align=center;html=1;fontSize=12;fontStyle=0;aspect=fixed;shape=mxgraph.aws4.resourceIcon;resIcon=mxgraph.aws4.api_gateway;" parent="1" vertex="1">
          <mxGeometry x="240" y="171" width="78" height="78" as="geometry" />
        </mxCell>
        <mxCell id="munbNwJGpO_LgmVfhRF7-5" value="" style="sketch=0;points=[[0,0,0],[0.25,0,0],[0.5,0,0],[0.75,0,0],[1,0,0],[0,1,0],[0.25,1,0],[0.5,1,0],[0.75,1,0],[1,1,0],[0,0.25,0],[0,0.5,0],[0,0.75,0],[1,0.25,0],[1,0.5,0],[1,0.75,0]];outlineConnect=0;fontColor=#232F3E;gradientColor=#F78E04;gradientDirection=north;fillColor=#D05C17;strokeColor=#ffffff;dashed=0;verticalLabelPosition=bottom;verticalAlign=top;align=center;html=1;fontSize=12;fontStyle=0;aspect=fixed;shape=mxgraph.aws4.resourceIcon;resIcon=mxgraph.aws4.eks;" parent="1" vertex="1">
          <mxGeometry x="500" y="171" width="78" height="78" as="geometry" />
        </mxCell>
        <mxCell id="munbNwJGpO_LgmVfhRF7-6" value="Order MS" style="text;html=1;align=center;verticalAlign=middle;resizable=0;points=[];autosize=1;strokeColor=none;fillColor=none;" parent="1" vertex="1">
          <mxGeometry x="498" y="249" width="80" height="30" as="geometry" />
        </mxCell>
        <mxCell id="munbNwJGpO_LgmVfhRF7-7" value="" style="endArrow=classic;html=1;rounded=0;" parent="1" target="munbNwJGpO_LgmVfhRF7-5" edge="1">
          <mxGeometry width="50" height="50" relative="1" as="geometry">
            <mxPoint x="318" y="209.5" as="sourcePoint" />
            <mxPoint x="388" y="209.5" as="targetPoint" />
          </mxGeometry>
        </mxCell>
        <mxCell id="munbNwJGpO_LgmVfhRF7-8" value="" style="sketch=0;points=[[0,0,0],[0.25,0,0],[0.5,0,0],[0.75,0,0],[1,0,0],[0,1,0],[0.25,1,0],[0.5,1,0],[0.75,1,0],[1,1,0],[0,0.25,0],[0,0.5,0],[0,0.75,0],[1,0.25,0],[1,0.5,0],[1,0.75,0]];outlineConnect=0;fontColor=#232F3E;gradientColor=#4D72F3;gradientDirection=north;fillColor=#3334B9;strokeColor=#ffffff;dashed=0;verticalLabelPosition=bottom;verticalAlign=top;align=center;html=1;fontSize=12;fontStyle=0;aspect=fixed;shape=mxgraph.aws4.resourceIcon;resIcon=mxgraph.aws4.documentdb_with_mongodb_compatibility;" parent="1" vertex="1">
          <mxGeometry x="610" y="171" width="78" height="78" as="geometry" />
        </mxCell>
        <mxCell id="munbNwJGpO_LgmVfhRF7-9" value="Order DB" style="text;html=1;align=center;verticalAlign=middle;resizable=0;points=[];autosize=1;strokeColor=none;fillColor=none;" parent="1" vertex="1">
          <mxGeometry x="610" y="249" width="70" height="30" as="geometry" />
        </mxCell>
        <mxCell id="munbNwJGpO_LgmVfhRF7-10" value="" style="endArrow=classic;html=1;rounded=0;" parent="1" edge="1">
          <mxGeometry width="50" height="50" relative="1" as="geometry">
            <mxPoint x="580" y="210" as="sourcePoint" />
            <mxPoint x="610" y="210" as="targetPoint" />
          </mxGeometry>
        </mxCell>
        <mxCell id="munbNwJGpO_LgmVfhRF7-11" value="" style="sketch=0;points=[[0,0,0],[0.25,0,0],[0.5,0,0],[0.75,0,0],[1,0,0],[0,1,0],[0.25,1,0],[0.5,1,0],[0.75,1,0],[1,1,0],[0,0.25,0],[0,0.5,0],[0,0.75,0],[1,0.25,0],[1,0.5,0],[1,0.75,0]];outlineConnect=0;fontColor=#232F3E;gradientColor=#945DF2;gradientDirection=north;fillColor=#5A30B5;strokeColor=#ffffff;dashed=0;verticalLabelPosition=bottom;verticalAlign=top;align=center;html=1;fontSize=12;fontStyle=0;aspect=fixed;shape=mxgraph.aws4.resourceIcon;resIcon=mxgraph.aws4.managed_streaming_for_kafka;" parent="1" vertex="1">
          <mxGeometry x="630" y="-90" width="106" height="106" as="geometry" />
        </mxCell>
        <mxCell id="munbNwJGpO_LgmVfhRF7-12" value="KAFKA" style="text;html=1;align=center;verticalAlign=middle;resizable=0;points=[];autosize=1;strokeColor=none;fillColor=none;" parent="1" vertex="1">
          <mxGeometry x="650" y="24" width="60" height="30" as="geometry" />
        </mxCell>
        <mxCell id="munbNwJGpO_LgmVfhRF7-13" value="1" style="text;html=1;align=center;verticalAlign=middle;resizable=0;points=[];autosize=1;strokeColor=none;fillColor=none;" parent="1" vertex="1">
          <mxGeometry x="185" y="178" width="30" height="30" as="geometry" />
        </mxCell>
        <mxCell id="munbNwJGpO_LgmVfhRF7-14" value="2 - API GW routes request to &lt;br&gt;order ms" style="text;html=1;align=center;verticalAlign=middle;resizable=0;points=[];autosize=1;strokeColor=none;fillColor=none;" parent="1" vertex="1">
          <mxGeometry x="313" y="213" width="180" height="40" as="geometry" />
        </mxCell>
        <mxCell id="munbNwJGpO_LgmVfhRF7-15" value="" style="sketch=0;points=[[0,0,0],[0.25,0,0],[0.5,0,0],[0.75,0,0],[1,0,0],[0,1,0],[0.25,1,0],[0.5,1,0],[0.75,1,0],[1,1,0],[0,0.25,0],[0,0.5,0],[0,0.75,0],[1,0.25,0],[1,0.5,0],[1,0.75,0]];outlineConnect=0;fontColor=#232F3E;gradientColor=#F78E04;gradientDirection=north;fillColor=#D05C17;strokeColor=#ffffff;dashed=0;verticalLabelPosition=bottom;verticalAlign=top;align=center;html=1;fontSize=12;fontStyle=0;aspect=fixed;shape=mxgraph.aws4.resourceIcon;resIcon=mxgraph.aws4.eks;" parent="1" vertex="1">
          <mxGeometry x="681" y="-318" width="78" height="78" as="geometry" />
        </mxCell>
        <mxCell id="munbNwJGpO_LgmVfhRF7-16" value="Payment MS" style="text;html=1;align=center;verticalAlign=middle;resizable=0;points=[];autosize=1;strokeColor=none;fillColor=none;" parent="1" vertex="1">
          <mxGeometry x="669" y="-352" width="90" height="30" as="geometry" />
        </mxCell>
        <mxCell id="munbNwJGpO_LgmVfhRF7-17" value="" style="sketch=0;points=[[0,0,0],[0.25,0,0],[0.5,0,0],[0.75,0,0],[1,0,0],[0,1,0],[0.25,1,0],[0.5,1,0],[0.75,1,0],[1,1,0],[0,0.25,0],[0,0.5,0],[0,0.75,0],[1,0.25,0],[1,0.5,0],[1,0.75,0]];outlineConnect=0;fontColor=#232F3E;gradientColor=#4D72F3;gradientDirection=north;fillColor=#3334B9;strokeColor=#ffffff;dashed=0;verticalLabelPosition=bottom;verticalAlign=top;align=center;html=1;fontSize=12;fontStyle=0;aspect=fixed;shape=mxgraph.aws4.resourceIcon;resIcon=mxgraph.aws4.documentdb_with_mongodb_compatibility;" parent="1" vertex="1">
          <mxGeometry x="612" y="-312" width="50" height="50" as="geometry" />
        </mxCell>
        <mxCell id="munbNwJGpO_LgmVfhRF7-18" value="Payment DB" style="text;html=1;align=center;verticalAlign=middle;resizable=0;points=[];autosize=1;strokeColor=none;fillColor=none;" parent="1" vertex="1">
          <mxGeometry x="589" y="-348" width="90" height="30" as="geometry" />
        </mxCell>
        <mxCell id="munbNwJGpO_LgmVfhRF7-19" value="" style="sketch=0;points=[[0,0,0],[0.25,0,0],[0.5,0,0],[0.75,0,0],[1,0,0],[0,1,0],[0.25,1,0],[0.5,1,0],[0.75,1,0],[1,1,0],[0,0.25,0],[0,0.5,0],[0,0.75,0],[1,0.25,0],[1,0.5,0],[1,0.75,0]];outlineConnect=0;fontColor=#232F3E;gradientColor=#F78E04;gradientDirection=north;fillColor=#D05C17;strokeColor=#ffffff;dashed=0;verticalLabelPosition=bottom;verticalAlign=top;align=center;html=1;fontSize=12;fontStyle=0;aspect=fixed;shape=mxgraph.aws4.resourceIcon;resIcon=mxgraph.aws4.eks;" parent="1" vertex="1">
          <mxGeometry x="1039" y="-322" width="78" height="78" as="geometry" />
        </mxCell>
        <mxCell id="munbNwJGpO_LgmVfhRF7-20" value="" style="sketch=0;points=[[0,0,0],[0.25,0,0],[0.5,0,0],[0.75,0,0],[1,0,0],[0,1,0],[0.25,1,0],[0.5,1,0],[0.75,1,0],[1,1,0],[0,0.25,0],[0,0.5,0],[0,0.75,0],[1,0.25,0],[1,0.5,0],[1,0.75,0]];outlineConnect=0;fontColor=#232F3E;gradientColor=#4D72F3;gradientDirection=north;fillColor=#3334B9;strokeColor=#ffffff;dashed=0;verticalLabelPosition=bottom;verticalAlign=top;align=center;html=1;fontSize=12;fontStyle=0;aspect=fixed;shape=mxgraph.aws4.resourceIcon;resIcon=mxgraph.aws4.documentdb_with_mongodb_compatibility;" parent="1" vertex="1">
          <mxGeometry x="1154" y="-309" width="50" height="50" as="geometry" />
        </mxCell>
        <mxCell id="munbNwJGpO_LgmVfhRF7-21" value="Wallet MS" style="text;html=1;align=center;verticalAlign=middle;resizable=0;points=[];autosize=1;strokeColor=none;fillColor=none;" parent="1" vertex="1">
          <mxGeometry x="1028" y="-352" width="80" height="30" as="geometry" />
        </mxCell>
        <mxCell id="munbNwJGpO_LgmVfhRF7-22" value="Wallet DB" style="text;html=1;align=center;verticalAlign=middle;resizable=0;points=[];autosize=1;strokeColor=none;fillColor=none;" parent="1" vertex="1">
          <mxGeometry x="1128" y="-352" width="80" height="30" as="geometry" />
        </mxCell>
        <mxCell id="munbNwJGpO_LgmVfhRF7-23" value="" style="endArrow=classic;html=1;rounded=0;entryX=0;entryY=0.5;entryDx=0;entryDy=0;entryPerimeter=0;" parent="1" source="munbNwJGpO_LgmVfhRF7-19" target="munbNwJGpO_LgmVfhRF7-20" edge="1">
          <mxGeometry width="50" height="50" relative="1" as="geometry">
            <mxPoint x="664" y="-121" as="sourcePoint" />
            <mxPoint x="634" y="-60" as="targetPoint" />
            <Array as="points" />
          </mxGeometry>
        </mxCell>
        <mxCell id="munbNwJGpO_LgmVfhRF7-24" value="6 Check and deduct &lt;br&gt;money from user wallet" style="text;html=1;align=center;verticalAlign=middle;resizable=0;points=[];autosize=1;strokeColor=none;fillColor=none;" parent="1" vertex="1">
          <mxGeometry x="800" y="-329" width="150" height="40" as="geometry" />
        </mxCell>
        <mxCell id="munbNwJGpO_LgmVfhRF7-25" value="" style="sketch=0;points=[[0,0,0],[0.25,0,0],[0.5,0,0],[0.75,0,0],[1,0,0],[0,1,0],[0.25,1,0],[0.5,1,0],[0.75,1,0],[1,1,0],[0,0.25,0],[0,0.5,0],[0,0.75,0],[1,0.25,0],[1,0.5,0],[1,0.75,0]];outlineConnect=0;fontColor=#232F3E;gradientColor=#F78E04;gradientDirection=north;fillColor=#D05C17;strokeColor=#ffffff;dashed=0;verticalLabelPosition=bottom;verticalAlign=top;align=center;html=1;fontSize=12;fontStyle=0;aspect=fixed;shape=mxgraph.aws4.resourceIcon;resIcon=mxgraph.aws4.eks;" parent="1" vertex="1">
          <mxGeometry x="1050" y="180" width="78" height="78" as="geometry" />
        </mxCell>
        <mxCell id="munbNwJGpO_LgmVfhRF7-26" value="" style="sketch=0;points=[[0,0,0],[0.25,0,0],[0.5,0,0],[0.75,0,0],[1,0,0],[0,1,0],[0.25,1,0],[0.5,1,0],[0.75,1,0],[1,1,0],[0,0.25,0],[0,0.5,0],[0,0.75,0],[1,0.25,0],[1,0.5,0],[1,0.75,0]];outlineConnect=0;fontColor=#232F3E;gradientColor=#4D72F3;gradientDirection=north;fillColor=#3334B9;strokeColor=#ffffff;dashed=0;verticalLabelPosition=bottom;verticalAlign=top;align=center;html=1;fontSize=12;fontStyle=0;aspect=fixed;shape=mxgraph.aws4.resourceIcon;resIcon=mxgraph.aws4.documentdb_with_mongodb_compatibility;" parent="1" vertex="1">
          <mxGeometry x="1140" y="200" width="40" height="40" as="geometry" />
        </mxCell>
        <mxCell id="munbNwJGpO_LgmVfhRF7-27" value="Inventory MS" style="text;html=1;align=center;verticalAlign=middle;resizable=0;points=[];autosize=1;strokeColor=none;fillColor=none;" parent="1" vertex="1">
          <mxGeometry x="1038" y="265" width="90" height="30" as="geometry" />
        </mxCell>
        <mxCell id="munbNwJGpO_LgmVfhRF7-28" value="Inventory DB" style="text;html=1;align=center;verticalAlign=middle;resizable=0;points=[];autosize=1;strokeColor=none;fillColor=none;" parent="1" vertex="1">
          <mxGeometry x="1128" y="249" width="90" height="30" as="geometry" />
        </mxCell>
        <mxCell id="munbNwJGpO_LgmVfhRF7-29" value="" style="endArrow=classic;html=1;rounded=0;exitX=0.5;exitY=0;exitDx=0;exitDy=0;exitPerimeter=0;" parent="1" source="munbNwJGpO_LgmVfhRF7-5" target="munbNwJGpO_LgmVfhRF7-11" edge="1">
          <mxGeometry width="50" height="50" relative="1" as="geometry">
            <mxPoint x="560" y="150" as="sourcePoint" />
            <mxPoint x="900" y="210" as="targetPoint" />
            <Array as="points">
              <mxPoint x="539" y="150" />
              <mxPoint x="539" y="-40" />
            </Array>
          </mxGeometry>
        </mxCell>
        <mxCell id="munbNwJGpO_LgmVfhRF7-30" value="" style="sketch=0;points=[[0,0,0],[0.25,0,0],[0.5,0,0],[0.75,0,0],[1,0,0],[0,1,0],[0.25,1,0],[0.5,1,0],[0.75,1,0],[1,1,0],[0,0.25,0],[0,0.5,0],[0,0.75,0],[1,0.25,0],[1,0.5,0],[1,0.75,0]];outlineConnect=0;fontColor=#232F3E;gradientColor=#FF4F8B;gradientDirection=north;fillColor=#BC1356;strokeColor=#ffffff;dashed=0;verticalLabelPosition=bottom;verticalAlign=top;align=center;html=1;fontSize=12;fontStyle=0;aspect=fixed;shape=mxgraph.aws4.resourceIcon;resIcon=mxgraph.aws4.sns;" parent="1" vertex="1">
          <mxGeometry x="240" y="-24" width="78" height="78" as="geometry" />
        </mxCell>
        <mxCell id="munbNwJGpO_LgmVfhRF7-31" value="Notification Service" style="text;html=1;align=center;verticalAlign=middle;resizable=0;points=[];autosize=1;strokeColor=none;fillColor=none;" parent="1" vertex="1">
          <mxGeometry x="215" y="58" width="130" height="30" as="geometry" />
        </mxCell>
        <mxCell id="munbNwJGpO_LgmVfhRF7-32" value="" style="endArrow=classic;html=1;rounded=0;exitX=0;exitY=0.5;exitDx=0;exitDy=0;exitPerimeter=0;" parent="1" source="munbNwJGpO_LgmVfhRF7-30" edge="1">
          <mxGeometry width="50" height="50" relative="1" as="geometry">
            <mxPoint x="140" y="10" as="sourcePoint" />
            <mxPoint x="140" y="170" as="targetPoint" />
            <Array as="points">
              <mxPoint x="140" y="15" />
            </Array>
          </mxGeometry>
        </mxCell>
        <mxCell id="munbNwJGpO_LgmVfhRF7-33" value="11 - Notfiy to client&lt;br&gt;" style="text;html=1;align=center;verticalAlign=middle;resizable=0;points=[];autosize=1;strokeColor=none;fillColor=none;" parent="1" vertex="1">
          <mxGeometry x="20" y="50" width="120" height="30" as="geometry" />
        </mxCell>
        <mxCell id="munbNwJGpO_LgmVfhRF7-34" value="" style="sketch=0;points=[[0,0,0],[0.25,0,0],[0.5,0,0],[0.75,0,0],[1,0,0],[0,1,0],[0.25,1,0],[0.5,1,0],[0.75,1,0],[1,1,0],[0,0.25,0],[0,0.5,0],[0,0.75,0],[1,0.25,0],[1,0.5,0],[1,0.75,0]];outlineConnect=0;fontColor=#232F3E;gradientColor=#F78E04;gradientDirection=north;fillColor=#D05C17;strokeColor=#ffffff;dashed=0;verticalLabelPosition=bottom;verticalAlign=top;align=center;html=1;fontSize=12;fontStyle=0;aspect=fixed;shape=mxgraph.aws4.resourceIcon;resIcon=mxgraph.aws4.eks;" parent="1" vertex="1">
          <mxGeometry x="926" y="-94" width="114" height="114" as="geometry" />
        </mxCell>
        <mxCell id="munbNwJGpO_LgmVfhRF7-35" value="Orchestrator MS" style="text;html=1;strokeColor=none;fillColor=none;align=center;verticalAlign=middle;whiteSpace=wrap;rounded=0;" parent="1" vertex="1">
          <mxGeometry x="910" y="30" width="100" height="32" as="geometry" />
        </mxCell>
        <mxCell id="munbNwJGpO_LgmVfhRF7-36" value="3. Publish Event to Orchestrator topic with ORDER_INITIATED&lt;span style=&quot;background-color:#2f2f2f;padding:0px 0px 0px 2px;&quot;&gt;&lt;/span&gt;" style="text;html=1;strokeColor=none;fillColor=none;align=center;verticalAlign=middle;whiteSpace=wrap;rounded=0;" parent="1" vertex="1">
          <mxGeometry x="420" y="62" width="120" height="60" as="geometry" />
        </mxCell>
        <mxCell id="munbNwJGpO_LgmVfhRF7-37" value="4. Listens ORDER_INITIATED event" style="text;html=1;strokeColor=none;fillColor=none;align=center;verticalAlign=middle;whiteSpace=wrap;rounded=0;" parent="1" vertex="1">
          <mxGeometry x="800" y="-17" width="60" height="30" as="geometry" />
        </mxCell>
        <mxCell id="munbNwJGpO_LgmVfhRF7-38" value="" style="endArrow=classic;html=1;rounded=0;entryX=0;entryY=0.5;entryDx=0;entryDy=0;entryPerimeter=0;exitX=1;exitY=0.5;exitDx=0;exitDy=0;exitPerimeter=0;" parent="1" source="munbNwJGpO_LgmVfhRF7-11" target="munbNwJGpO_LgmVfhRF7-34" edge="1">
          <mxGeometry width="50" height="50" relative="1" as="geometry">
            <mxPoint x="670" y="80" as="sourcePoint" />
            <mxPoint x="720" y="30" as="targetPoint" />
          </mxGeometry>
        </mxCell>
        <mxCell id="munbNwJGpO_LgmVfhRF7-39" value="" style="endArrow=classic;html=1;rounded=0;entryX=0.5;entryY=1;entryDx=0;entryDy=0;entryPerimeter=0;" parent="1" edge="1">
          <mxGeometry width="50" height="50" relative="1" as="geometry">
            <mxPoint x="980" y="-100" as="sourcePoint" />
            <mxPoint x="710" y="-240" as="targetPoint" />
            <Array as="points">
              <mxPoint x="980" y="-190" />
              <mxPoint x="710" y="-190" />
            </Array>
          </mxGeometry>
        </mxCell>
        <mxCell id="munbNwJGpO_LgmVfhRF7-40" value="5. API Call to payment MS to deduct money" style="text;html=1;strokeColor=none;fillColor=none;align=center;verticalAlign=middle;whiteSpace=wrap;rounded=0;" parent="1" vertex="1">
          <mxGeometry x="790" y="-180" width="120" height="40" as="geometry" />
        </mxCell>
        <mxCell id="munbNwJGpO_LgmVfhRF7-41" value="" style="endArrow=classic;html=1;rounded=0;entryX=0;entryY=0.5;entryDx=0;entryDy=0;entryPerimeter=0;exitX=1;exitY=0.5;exitDx=0;exitDy=0;exitPerimeter=0;" parent="1" source="munbNwJGpO_LgmVfhRF7-15" target="munbNwJGpO_LgmVfhRF7-19" edge="1">
          <mxGeometry width="50" height="50" relative="1" as="geometry">
            <mxPoint x="670" y="-50" as="sourcePoint" />
            <mxPoint x="720" y="-100" as="targetPoint" />
          </mxGeometry>
        </mxCell>
        <mxCell id="munbNwJGpO_LgmVfhRF7-42" value="" style="endArrow=classic;html=1;rounded=0;exitX=0.75;exitY=1;exitDx=0;exitDy=0;exitPerimeter=0;" parent="1" source="munbNwJGpO_LgmVfhRF7-15" edge="1">
          <mxGeometry width="50" height="50" relative="1" as="geometry">
            <mxPoint x="670" y="-50" as="sourcePoint" />
            <mxPoint x="1000" y="-100" as="targetPoint" />
            <Array as="points">
              <mxPoint x="740" y="-210" />
              <mxPoint x="1000" y="-210" />
            </Array>
          </mxGeometry>
        </mxCell>
        <mxCell id="munbNwJGpO_LgmVfhRF7-43" value="7. API Call Return payment deducted" style="text;html=1;strokeColor=none;fillColor=none;align=center;verticalAlign=middle;whiteSpace=wrap;rounded=0;" parent="1" vertex="1">
          <mxGeometry x="1010" y="-190" width="120" height="30" as="geometry" />
        </mxCell>
        <mxCell id="munbNwJGpO_LgmVfhRF7-45" value="8. Update order status as payment done&lt;span style=&quot;background-color:#2f2f2f;padding:0px 0px 0px 2px;&quot;&gt;&lt;/span&gt;" style="text;html=1;strokeColor=none;fillColor=none;align=center;verticalAlign=middle;whiteSpace=wrap;rounded=0;" parent="1" vertex="1">
          <mxGeometry x="744.5" y="168" width="171" height="40" as="geometry" />
        </mxCell>
        <mxCell id="munbNwJGpO_LgmVfhRF7-46" value="" style="endArrow=classic;html=1;rounded=0;entryX=0.5;entryY=0;entryDx=0;entryDy=0;entryPerimeter=0;exitX=1;exitY=0.5;exitDx=0;exitDy=0;exitPerimeter=0;" parent="1" source="munbNwJGpO_LgmVfhRF7-34" target="munbNwJGpO_LgmVfhRF7-25" edge="1">
          <mxGeometry width="50" height="50" relative="1" as="geometry">
            <mxPoint x="670" y="-50" as="sourcePoint" />
            <mxPoint x="720" y="-100" as="targetPoint" />
            <Array as="points">
              <mxPoint x="1089" y="-37" />
            </Array>
          </mxGeometry>
        </mxCell>
        <mxCell id="munbNwJGpO_LgmVfhRF7-47" value="9. Perform API call to reserve inventory" style="text;html=1;strokeColor=none;fillColor=none;align=center;verticalAlign=middle;whiteSpace=wrap;rounded=0;" parent="1" vertex="1">
          <mxGeometry x="1094" y="16" width="136" height="24" as="geometry" />
        </mxCell>
        <mxCell id="munbNwJGpO_LgmVfhRF7-48" value="" style="endArrow=classic;html=1;rounded=0;entryX=1;entryY=1;entryDx=0;entryDy=0;entryPerimeter=0;exitX=0;exitY=0;exitDx=0;exitDy=0;exitPerimeter=0;" parent="1" source="munbNwJGpO_LgmVfhRF7-25" target="munbNwJGpO_LgmVfhRF7-34" edge="1">
          <mxGeometry width="50" height="50" relative="1" as="geometry">
            <mxPoint x="670" y="80" as="sourcePoint" />
            <mxPoint x="720" y="30" as="targetPoint" />
          </mxGeometry>
        </mxCell>
        <mxCell id="munbNwJGpO_LgmVfhRF7-49" value="10. Return inventory failed API call" style="text;html=1;strokeColor=none;fillColor=none;align=center;verticalAlign=middle;whiteSpace=wrap;rounded=0;" parent="1" vertex="1">
          <mxGeometry x="968" y="90" width="72" height="40" as="geometry" />
        </mxCell>
        <mxCell id="munbNwJGpO_LgmVfhRF7-50" value="" style="endArrow=classic;html=1;rounded=0;entryX=0.5;entryY=0;entryDx=0;entryDy=0;entryPerimeter=0;" parent="1" edge="1">
          <mxGeometry width="50" height="50" relative="1" as="geometry">
            <mxPoint x="946" y="-94" as="sourcePoint" />
            <mxPoint x="270" y="-24" as="targetPoint" />
            <Array as="points">
              <mxPoint x="946" y="-130" />
              <mxPoint x="273" y="-130" />
            </Array>
          </mxGeometry>
        </mxCell>
        <mxCell id="munbNwJGpO_LgmVfhRF7-51" value="11. Send message to user that inventory insufficient" style="text;html=1;strokeColor=none;fillColor=none;align=center;verticalAlign=middle;whiteSpace=wrap;rounded=0;" parent="1" vertex="1">
          <mxGeometry x="250" y="-180" width="110" height="25" as="geometry" />
        </mxCell>
        <mxCell id="munbNwJGpO_LgmVfhRF7-53" value="12. Update order status to order failed with inventory not available" style="text;html=1;strokeColor=none;fillColor=none;align=center;verticalAlign=middle;whiteSpace=wrap;rounded=0;" parent="1" vertex="1">
          <mxGeometry x="581" y="95" width="209" height="30" as="geometry" />
        </mxCell>
        <mxCell id="munbNwJGpO_LgmVfhRF7-54" value="" style="endArrow=classic;html=1;rounded=0;entryX=0;entryY=0;entryDx=0;entryDy=0;entryPerimeter=0;" parent="1" target="munbNwJGpO_LgmVfhRF7-30" edge="1">
          <mxGeometry width="50" height="50" relative="1" as="geometry">
            <mxPoint x="520" y="-130" as="sourcePoint" />
            <mxPoint x="240" y="-240" as="targetPoint" />
            <Array as="points">
              <mxPoint x="520" y="-240" />
              <mxPoint x="240" y="-240" />
            </Array>
          </mxGeometry>
        </mxCell>
        <mxCell id="munbNwJGpO_LgmVfhRF7-55" value="7. Send notification to user that payment is done" style="text;html=1;strokeColor=none;fillColor=none;align=center;verticalAlign=middle;whiteSpace=wrap;rounded=0;" parent="1" vertex="1">
          <mxGeometry x="240" y="-289" width="190" height="19" as="geometry" />
        </mxCell>
        <mxCell id="munbNwJGpO_LgmVfhRF7-56" value="14. Send notification to user that paymen refundt is done" style="text;html=1;strokeColor=none;fillColor=none;align=center;verticalAlign=middle;whiteSpace=wrap;rounded=0;" parent="1" vertex="1">
          <mxGeometry x="380" y="-184.5" width="130" height="49" as="geometry" />
        </mxCell>
        <mxCell id="munbNwJGpO_LgmVfhRF7-57" value="" style="endArrow=classic;html=1;rounded=0;" parent="1" edge="1">
          <mxGeometry width="50" height="50" relative="1" as="geometry">
            <mxPoint x="680" y="-130" as="sourcePoint" />
            <mxPoint x="680" y="-240" as="targetPoint" />
          </mxGeometry>
        </mxCell>
        <mxCell id="munbNwJGpO_LgmVfhRF7-58" value="13. Performs api call to refund money" style="text;html=1;strokeColor=none;fillColor=none;align=center;verticalAlign=middle;whiteSpace=wrap;rounded=0;" parent="1" vertex="1">
          <mxGeometry x="600" y="-210" width="60" height="30" as="geometry" />
        </mxCell>
        <mxCell id="iJhHysj6Xo6gPkSMSK3H-1" value="" style="endArrow=classic;html=1;rounded=0;exitX=0;exitY=1;exitDx=0;exitDy=0;exitPerimeter=0;" parent="1" source="munbNwJGpO_LgmVfhRF7-34" edge="1">
          <mxGeometry width="50" height="50" relative="1" as="geometry">
            <mxPoint x="540" y="160" as="sourcePoint" />
            <mxPoint x="570" y="170" as="targetPoint" />
            <Array as="points">
              <mxPoint x="800" y="40" />
              <mxPoint x="800" y="150" />
              <mxPoint x="570" y="150" />
            </Array>
          </mxGeometry>
        </mxCell>
      </root>
    </mxGraphModel>
  </diagram>
</mxfile>
